<svg xmlns="http://www.w3.org/2000/svg" width="1024" height="1024" viewBox="0 0 1024 1024" version="1.1"><path d="M 640.500 403.097 C 584.492 409.904, 534.225 441.357, 503.573 488.775 C 472.776 536.420, 465.698 597.674, 484.668 652.383 C 489.304 665.751, 500.419 687.211, 508.776 698.927 C 516.746 710.101, 533.242 727.612, 543.888 736.200 C 572.152 759.002, 606.279 773.074, 643.122 777.120 C 663.701 779.380, 695.220 776.635, 713.132 771.023 C 727.232 766.605, 732.180 767.082, 770.500 776.559 C 812.526 786.952, 824.902 787.017, 834.794 776.899 C 843.026 768.480, 843.113 755.234, 835.127 726.196 C 826.351 694.282, 826.032 684.828, 833.168 668.164 C 844.881 640.813, 849.984 617.095, 849.984 590 C 849.984 538.479, 829.668 490.936, 792.272 454.946 C 776.643 439.904, 764.963 431.682, 745.500 422.021 C 718.563 408.649, 696.017 403.109, 666 402.488 C 656.375 402.288, 644.900 402.562, 640.500 403.097" stroke="none" fill="#a6dc25" fill-rule="evenodd"/><path d="M 418 243.133 C 372.537 246.833, 327.015 263.048, 289 289.084 C 262.259 307.399, 237.399 332.259, 219.084 359 C 165.927 436.614, 157.562 535.555, 196.805 622.500 C 202.043 634.107, 203.436 642.271, 202.683 656.952 C 202.013 670, 199.737 680.654, 191.671 708.500 C 184.518 733.193, 182.264 746.692, 183.677 756.366 C 186.184 773.523, 195.764 783.324, 212.672 786.029 C 225.721 788.116, 243.174 785.197, 284.500 774.017 C 316.593 765.334, 328.789 762.924, 341 762.854 C 349.096 762.807, 352.199 763.316, 362 766.298 C 424.418 785.292, 493.375 780.522, 552.383 753.130 L 561.265 749.007 552.383 742.764 C 540.666 734.529, 517.318 711.102, 508.765 699 C 500.361 687.108, 489.267 665.646, 484.668 652.383 C 463.776 592.132, 474.329 525.918, 512.861 475.500 C 519.377 466.974, 535.191 450.834, 544 443.717 C 579.601 414.959, 623.572 400.551, 670.271 402.343 L 686.042 402.948 679.074 389.224 C 652.920 337.715, 611.012 295.996, 559.880 270.568 C 515.597 248.545, 466.989 239.146, 418 243.133" stroke="none" fill="#20b4da" fill-rule="evenodd"/></svg>